<?xml version="1.0" standalone="no"?>
<!DOCTYPE svg PUBLIC "-//W3C//DTD SVG 20010904//EN"
 "http://www.w3.org/TR/2001/REC-SVG-20010904/DTD/svg10.dtd">
<svg version="1.0" xmlns="http://www.w3.org/2000/svg"
 width="500.000000pt" height="500.000000pt" viewBox="0 0 500.000000 500.000000"
 preserveAspectRatio="xMidYMid meet">
<metadata>
Created by potrace 1.11, written by Peter Selinger 2001-2013
</metadata>
<g transform="translate(0.000000,500.000000) scale(0.100000,-0.100000)"
fill="#000000" stroke="none">
<path d="M0 2500 l0 -2500 2500 0 2500 0 0 2500 0 2500 -2500 0 -2500 0 0
-2500z m3807 1640 l58 -50 124 0 c142 0 142 -1 34 -71 l-66 -43 7 -106 c10
-187 19 -630 12 -630 -23 0 -143 35 -153 44 -6 6 -53 117 -104 246 -50 129
-93 237 -95 239 -5 6 -74 -26 -102 -47 l-22 -17 61 -210 61 -210 -6 -137 c-4
-76 -3 -138 1 -138 10 0 358 89 378 96 13 5 15 -49 15 -462 l0 -469 -174 -88
c-96 -48 -177 -87 -180 -87 -3 0 -6 47 -6 104 l0 104 84 46 83 45 6 68 c4 37
7 146 7 241 l0 172 -780 -390 -780 -390 0 -133 0 -133 -305 -158 -305 -158 -2
-221 -3 -222 -165 -82 c-91 -45 -168 -82 -172 -82 -5 -1 -8 47 -8 107 l0 107
80 43 80 43 0 240 0 239 135 67 134 67 4 306 c2 168 7 317 11 331 l8 26 -86 7
-85 7 -175 -96 -175 -96 -168 71 c-92 39 -171 75 -176 79 -4 4 144 74 329 156
l336 148 137 -67 136 -68 410 199 409 200 132 311 c128 302 134 314 229 447
54 75 112 154 129 176 26 34 75 63 306 184 151 79 280 144 287 144 6 1 38 -21
70 -49z"/>
</g>
</svg>
