<?xml version="1.0" encoding="utf-8"?>

<svg version="1.1" id="Layer_1" xmlns="http://www.w3.org/2000/svg" xmlns:xlink="http://www.w3.org/1999/xlink" x="0px" y="0px"
	 viewBox="0 0 500 500" style="enable-background:new 0 0 500 500;" xml:space="preserve" fill="#ffffff">
<g>
	<polygon points="409,136.3 391.9,77.4 409.8,68 438,138.9 461.1,144.9 457.7,39.8 479.9,24.4 444.9,24.4 426.9,9 345.7,50.9 
		309.8,100.4 272.2,189.3 155.1,246.6 116.7,226.9 20.1,269.7 70.5,291 121,263.7 145.7,266.2 141.5,279.1 141.5,361.1 103,379.9 
		103,448.3 80.8,460.2 80.8,491 129.5,467.1 130.4,403.8 217.5,358.5 217.5,320.9 439.7,209.8 438.9,278.2 414.1,291.9 414.1,321.8 
		464.5,296.1 464.5,163.7 408.1,178.2"/>
</g>
</svg>
